<svg width="141" height="39" viewBox="0 0 141 39" fill="none" xmlns="http://www.w3.org/2000/svg">
<path d="M0 13.8457C0.154705 14.3663 0.339094 14.89 0.555664 15.416C1.74392 18.3019 3.35386 20.3497 5.38574 21.5586C7.44341 22.7058 9.57101 23.3377 11.7676 23.4561C13.9899 23.5127 16.7681 23.3664 20.1016 23.0166C22.5398 22.7286 24.4796 22.5946 25.9199 22.6152C27.3858 22.5742 28.7145 22.8202 29.9053 23.3525C31.096 23.885 31.9702 24.8292 32.5283 26.1846C33.2124 27.8461 33.1583 29.4534 32.3662 31.0068C31.556 32.5166 30.08 33.7135 27.9375 34.5957C25.8387 35.4599 23.9518 35.5968 22.2773 35.0078C21.1728 34.5967 20.2346 33.906 19.4629 32.9355C18.809 32.1133 17.7195 31.6684 16.748 32.0684L10.5127 34.6357C9.4803 35.0611 8.98282 36.2597 9.5498 37.2217C9.75574 37.5711 9.97352 37.9068 10.2021 38.2295H8.96973C4.01599 38.2295 0 34.2135 0 29.2598V13.8457ZM33.1807 0C38.1344 0 42.1504 4.01599 42.1504 8.96973V22.6309C42.0438 22.3119 41.926 21.9938 41.7959 21.6777C40.6256 18.8358 39.0023 16.8198 36.9268 15.6289C34.8511 14.438 32.6934 13.7918 30.4531 13.6914C28.2128 13.5911 25.4253 13.7156 22.0918 14.0654C19.6358 14.3097 17.6967 14.4436 16.2744 14.4668C14.8778 14.4282 13.6012 14.1862 12.4463 13.7412C11.3176 13.2345 10.5011 12.3694 9.99707 11.1455C9.27689 9.39647 9.2525 7.84645 9.92383 6.49609C10.6389 5.12773 11.8928 4.07412 13.6855 3.33594C15.7406 2.48982 17.5966 2.33949 19.2529 2.88477C20.2829 3.18089 21.1355 3.67471 21.8105 4.36621C22.552 5.12575 23.6474 5.60139 24.6289 5.19727L30.9883 2.57812C32.0247 2.15108 32.5084 0.954207 31.9668 0H33.1807Z" fill="#FFFFFF"/>
<path d="M125.887 36.6949C123.268 36.6949 121.177 36.0881 119.612 34.8746C118.079 33.6611 117.312 31.9685 117.312 29.797C117.312 27.6254 117.951 25.9169 119.229 24.6715C120.506 23.426 122.534 22.5478 125.312 22.0369L134.318 20.3603C134.318 18.2207 133.807 16.624 132.785 15.5701C131.795 14.5163 130.294 13.9893 128.282 13.9893C126.526 13.9893 125.136 14.3885 124.115 15.1869C123.093 15.9533 122.39 17.071 122.007 18.54L117.743 18.2047C118.222 15.8096 119.372 13.8776 121.193 12.4086C123.045 10.9077 125.408 10.1572 128.282 10.1572C131.539 10.1572 134.03 11.0833 135.755 12.9355C137.479 14.7558 138.34 17.2786 138.34 20.504V30.9945C138.34 31.5694 138.437 31.9845 138.629 32.24C138.852 32.4635 139.203 32.5753 139.682 32.5753H140.689V36.12C140.561 36.152 140.353 36.1679 140.066 36.1679C139.779 36.1999 139.475 36.2159 139.156 36.2159C138.006 36.2159 137.063 36.0402 136.329 35.6889C135.626 35.3057 135.116 34.7309 134.797 33.9645C134.477 33.1661 134.318 32.1282 134.318 30.8508L134.797 30.9466C134.573 32.0324 134.029 33.0224 133.167 33.9166C132.305 34.7788 131.235 35.4654 129.958 35.9763C128.68 36.4554 127.324 36.6949 125.887 36.6949ZM126.27 33.1501C127.963 33.1501 129.4 32.8308 130.581 32.1921C131.795 31.5215 132.72 30.6273 133.359 29.5096C133.997 28.3599 134.318 27.0825 134.318 25.6774V23.8571L126.078 25.39C124.353 25.7094 123.157 26.2043 122.486 26.875C121.847 27.5137 121.528 28.3599 121.528 29.4138C121.528 30.5954 121.942 31.5215 122.772 32.1921C123.635 32.8308 124.801 33.1501 126.27 33.1501Z" fill="#FFFFFF"/>
<path d="M102.605 36.1194L93.3594 10.7314H97.7664L105.143 31.9999L112.52 10.7314H116.927L107.682 36.1194H102.605Z" fill="#FFFFFF"/>
<path d="M86.6192 36.1198V10.7318H90.6429V36.1198H86.6192ZM86.5234 6.75591V2.06152H90.7387V6.75591H86.5234Z" fill="#FFFFFF"/>
<path d="M70.6088 36.8861C67.9902 36.8861 65.7069 36.3911 63.7589 35.4011C61.8108 34.4111 60.262 33.0539 59.1124 31.3294C57.9947 29.573 57.34 27.5452 57.1484 25.2459L61.4596 24.9585C61.6831 26.651 62.1781 28.0881 62.9445 29.2697C63.711 30.4512 64.7329 31.3454 66.0103 31.9522C67.3196 32.5589 68.8844 32.8623 70.7046 32.8623C72.3014 32.8623 73.6586 32.6547 74.7763 32.2396C75.894 31.8244 76.7403 31.2177 77.3151 30.4193C77.9219 29.6209 78.2252 28.6469 78.2252 27.4973C78.2252 26.4434 77.9698 25.5173 77.4588 24.719C76.9798 23.8887 76.0377 23.1382 74.6326 22.4676C73.2594 21.765 71.2156 21.0784 68.5012 20.4078C65.8825 19.7372 63.7908 19.0027 62.226 18.2043C60.6931 17.4059 59.5754 16.4319 58.8729 15.2823C58.2022 14.1326 57.8669 12.7116 57.8669 11.019C57.8669 9.10289 58.314 7.42632 59.2082 5.98926C60.1343 4.52027 61.4436 3.38659 63.1361 2.58822C64.8287 1.75792 66.8406 1.34277 69.1718 1.34277C71.6627 1.34277 73.8023 1.82179 75.5906 2.77983C77.379 3.70594 78.8001 4.98332 79.8539 6.61199C80.9078 8.24065 81.5624 10.0929 81.8179 12.1687L77.5067 12.4561C77.3151 11.0829 76.868 9.86932 76.1655 8.81548C75.4948 7.7297 74.5687 6.88343 73.3872 6.27667C72.2056 5.66992 70.7685 5.36654 69.076 5.36654C66.9683 5.36654 65.2917 5.87749 64.0463 6.8994C62.8008 7.88937 62.1781 9.19869 62.1781 10.8274C62.1781 11.8813 62.4176 12.7595 62.8966 13.462C63.4076 14.1326 64.3017 14.7394 65.5791 15.2823C66.8565 15.7932 68.6928 16.3521 71.0879 16.9589C73.93 17.6614 76.1814 18.5077 77.842 19.4977C79.5346 20.4557 80.7321 21.5734 81.4347 22.8508C82.1692 24.1282 82.5364 25.5812 82.5364 27.2099C82.5364 29.1898 82.0255 30.9143 81.0036 32.3833C79.9817 33.8203 78.5765 34.9381 76.7882 35.7364C74.9998 36.5029 72.9401 36.8861 70.6088 36.8861Z" fill="#FFFFFF"/>
</svg>
