<svg width="162" height="30" viewBox="0 0 162 30" fill="none" xmlns="http://www.w3.org/2000/svg">
<path d="M0.355225 0H31.8352C33.6219 0 35.1019 0.346667 36.2752 1.04C37.4486 1.70667 38.3286 2.57333 38.9152 3.64C39.5286 4.70667 39.8352 5.82667 39.8352 7C39.8352 8.17333 39.5286 9.32 38.9152 10.44C38.3019 11.5333 37.3686 12.4267 36.1152 13.12C34.8886 13.8133 33.3419 14.16 31.4752 14.16C31.4752 14.16 31.4619 14.16 31.4352 14.16C31.4352 14.16 31.4352 14.1733 31.4352 14.2C31.4619 14.2 31.4752 14.2 31.4752 14.2C33.6352 14.2 35.4219 14.5867 36.8352 15.36C38.2486 16.1333 39.3019 17.12 39.9952 18.32C40.6886 19.52 41.0352 20.7867 41.0352 22.12C41.0352 23.1067 40.8352 24.0667 40.4352 25C40.0619 25.9333 39.4886 26.7867 38.7152 27.56C37.9419 28.3067 36.9819 28.9067 35.8352 29.36C34.6886 29.7867 33.3552 30 31.8352 30H0.355225C0.355225 28.1867 0.355225 26.3867 0.355225 24.6C0.355225 22.7867 0.355225 20.9733 0.355225 19.16C0.355225 17.3467 0.355225 15.5467 0.355225 13.76C0.355225 11.9467 0.355225 10.1333 0.355225 8.32C0.355225 6.93333 0.355225 5.54667 0.355225 4.16C0.355225 2.77333 0.355225 1.38667 0.355225 0ZM16.1152 15.76C16.1152 16.0533 16.1152 16.3467 16.1152 16.64C16.1152 16.9333 16.1152 17.2267 16.1152 17.52C16.1152 17.7333 16.1152 17.9467 16.1152 18.16C16.1152 18.3467 16.1152 18.5333 16.1152 18.72C16.1152 18.9067 16.1152 19.0933 16.1152 19.28C16.1152 19.3067 16.1152 19.32 16.1152 19.32C16.1152 19.32 16.1286 19.32 16.1552 19.32H21.8352C22.5552 19.32 23.0886 19.1333 23.4352 18.76C23.8086 18.3867 23.9952 17.96 23.9952 17.48C23.9952 17.24 23.9552 17.0267 23.8752 16.84C23.7952 16.6267 23.6752 16.44 23.5152 16.28C23.3819 16.0933 23.1952 15.96 22.9552 15.88C22.7419 15.7733 22.4886 15.72 22.1952 15.72H16.1552C16.1552 15.72 16.1419 15.7333 16.1152 15.76ZM16.1552 10.12C16.1286 10.12 16.1152 10.1333 16.1152 10.16C16.1152 10.32 16.1152 10.5067 16.1152 10.72C16.1152 10.9067 16.1152 11.1067 16.1152 11.32C16.1152 11.5067 16.1152 11.7067 16.1152 11.92C16.1152 12.2133 16.1152 12.52 16.1152 12.84C16.1152 13.1333 16.1152 13.4133 16.1152 13.68C16.1152 13.7067 16.1152 13.72 16.1152 13.72C16.1152 13.72 16.1286 13.72 16.1552 13.72H21.6352C22.1152 13.72 22.5152 13.64 22.8352 13.48C23.1552 13.2933 23.3952 13.0667 23.5552 12.8C23.7152 12.5067 23.7952 12.2 23.7952 11.88C23.7952 11.4267 23.6352 11.0267 23.3152 10.68C23.0219 10.3067 22.5819 10.12 21.9952 10.12H16.1552Z" fill="#222222"/>
<path d="M75.8312 10.08H58.4312C58.4045 10.08 58.3912 10.08 58.3912 10.08V12.28C58.3912 12.3067 58.3912 12.3333 58.3912 12.36C58.4178 12.36 58.4312 12.36 58.4312 12.36H75.2312V18H58.4312C58.4312 18 58.4178 18 58.3912 18C58.3912 18 58.3912 18.0133 58.3912 18.04C58.3912 18.04 58.3912 18.0533 58.3912 18.08V20.32C58.4178 20.32 58.4312 20.32 58.4312 20.32H76.0712V30H42.1912C42.1912 28.4267 42.1912 26.8533 42.1912 25.28C42.1912 23.68 42.1912 22.0933 42.1912 20.52C42.1912 18.9467 42.1912 17.3733 42.1912 15.8C42.1912 14.2 42.1912 12.6133 42.1912 11.04C42.1912 9.44 42.1912 7.85333 42.1912 6.28C42.1912 5.24 42.1912 4.2 42.1912 3.16C42.1912 2.09333 42.1912 1.04 42.1912 0H75.8312V10.08Z" fill="#222222"/>
<path d="M111.222 10.08H93.8218C93.7951 10.08 93.7818 10.08 93.7818 10.08V12.28C93.7818 12.3067 93.7818 12.3333 93.7818 12.36C93.8084 12.36 93.8218 12.36 93.8218 12.36H110.622V18H93.8218C93.8218 18 93.8084 18 93.7818 18C93.7818 18 93.7818 18.0133 93.7818 18.04C93.7818 18.04 93.7818 18.0533 93.7818 18.08V20.32C93.8084 20.32 93.8218 20.32 93.8218 20.32H111.462V30H77.5818C77.5818 28.4267 77.5818 26.8533 77.5818 25.28C77.5818 23.68 77.5818 22.0933 77.5818 20.52C77.5818 18.9467 77.5818 17.3733 77.5818 15.8C77.5818 14.2 77.5818 12.6133 77.5818 11.04C77.5818 9.44 77.5818 7.85333 77.5818 6.28C77.5818 5.24 77.5818 4.2 77.5818 3.16C77.5818 2.09333 77.5818 1.04 77.5818 0H111.222V10.08Z" fill="#222222"/>
<path d="M161.172 0C161.172 2 161.172 4 161.172 6C161.172 8 161.172 10 161.172 12C161.172 14 161.172 16 161.172 18C161.172 20 161.172 22 161.172 24C161.172 26 161.172 28 161.172 30H145.772C145.772 27.2267 145.772 24.4533 145.772 21.68C145.772 18.9067 145.772 16.1333 145.772 13.36C145.772 13.3333 145.759 13.32 145.732 13.32C145.732 13.32 145.719 13.32 145.692 13.32C145.692 13.32 145.692 13.3333 145.692 13.36L141.772 30H131.572C130.906 27.2267 130.252 24.4667 129.612 21.72C128.972 18.9733 128.319 16.2267 127.652 13.48C127.652 13.4533 127.639 13.44 127.612 13.44C127.612 13.44 127.599 13.44 127.572 13.44C127.572 13.44 127.572 13.4533 127.572 13.48C127.572 16.2267 127.572 18.9733 127.572 21.72C127.572 24.4667 127.572 27.2267 127.572 30H112.972C112.972 28 112.972 26 112.972 24C112.972 21.9733 112.972 19.96 112.972 17.96C112.972 15.9333 112.972 13.92 112.972 11.92C112.972 9.89334 112.972 7.88 112.972 5.88C112.972 4.89333 112.972 3.92 112.972 2.96C112.972 1.97333 112.972 0.986667 112.972 0H134.292C134.692 1.65333 135.079 3.30667 135.452 4.96C135.826 6.58667 136.199 8.22667 136.572 9.88C136.972 11.5333 137.359 13.1867 137.732 14.84C137.732 14.8667 137.732 14.8933 137.732 14.92C137.759 14.92 137.772 14.92 137.772 14.92C137.799 14.8933 137.812 14.8667 137.812 14.84L141.012 0H161.172Z" fill="#222222"/>
</svg>
