<svg width="186" height="30" viewBox="0 0 186 30" fill="none" xmlns="http://www.w3.org/2000/svg">
<path d="M5.28746 26.9916L11.8255 18.7989C12.1612 18.4537 12.3663 18.0024 12.4047 17.5224C12.4097 17.3711 12.3765 17.2209 12.3088 17.0855C12.2411 16.9501 12.1413 16.8338 12.0173 16.747C11.7143 16.5382 11.3513 16.4346 10.9838 16.4523C10.8212 16.4574 10.659 16.4711 10.4979 16.4936L0 17.9098V12.0898L10.4979 13.5215C10.659 13.5443 10.8212 13.5581 10.9838 13.5628C11.3527 13.5794 11.7164 13.4723 12.0173 13.2581C12.1407 13.1695 12.24 13.0521 12.3075 12.9161C12.3751 12.78 12.4087 12.6294 12.4047 12.4776C12.3723 12.0047 12.1751 11.5582 11.8469 11.2163L5.26726 2.90495L10.5699 0L14.5184 9.71743C14.6368 10.0803 14.8458 10.4072 15.1241 10.6683C15.2237 10.7741 15.3429 10.8583 15.4762 10.9159C15.6096 10.9736 15.7537 11.0033 15.899 11.0033C16.0442 11.0033 16.1884 10.9736 16.3217 10.9159C16.455 10.8583 16.5742 10.7741 16.6738 10.6683C16.9479 10.4047 17.1548 10.0784 17.2745 9.71743L21.1915 0L26.5887 2.90495L19.9459 11.2163C19.6095 11.5693 19.4047 12.0274 19.3667 12.5135C19.364 12.6604 19.3969 12.8061 19.4626 12.9375C19.5283 13.069 19.6249 13.1825 19.744 13.2685C20.0574 13.48 20.4316 13.5831 20.8091 13.5628C20.9824 13.5668 21.1561 13.5529 21.3265 13.5215L31.7676 12.0898V17.9098L21.3265 16.4936C21.1406 16.4604 20.9511 16.4466 20.7624 16.4523C20.3981 16.4307 20.0366 16.5248 19.7289 16.7211C19.6116 16.8049 19.5161 16.916 19.4513 17.0448C19.3864 17.1736 19.3541 17.3161 19.3566 17.4603C19.4014 17.9579 19.6066 18.4275 19.9409 18.7989L26.5572 26.9916L21.1814 30L17.2429 20.2927C17.1202 19.9331 16.915 19.6076 16.6435 19.3418C16.5439 19.236 16.4235 19.1518 16.2902 19.0942C16.1568 19.0365 16.0127 19.0068 15.8674 19.0068C15.7222 19.0068 15.5793 19.0365 15.4459 19.0942C15.3126 19.1518 15.1921 19.236 15.0926 19.3418C14.8192 19.61 14.6069 19.9343 14.4717 20.2927L10.5232 30L5.28746 26.9916Z" fill="#222222"/>
<path d="M49.2163 24.3437C43.56 24.3437 40.8034 22.2315 40.8034 17.864V17.7566H45.9228V18.5084C45.9228 19.8329 46.7104 20.1193 49.3237 20.1193C51.5075 20.1193 51.8655 19.7971 51.8655 18.9021C51.8655 17.9356 51.3643 17.7208 48.9657 17.2912L46.245 16.79C42.7008 16.1456 40.7676 14.642 40.7676 11.3126C40.7676 7.98329 43.4884 5.62053 48.6077 5.62053C53.0111 5.62053 56.3762 7.6969 56.3762 11.7422V12.2434H51.2569V11.7422C51.2569 10.5609 50.7557 9.91647 48.4645 9.91647C46.3166 9.91647 45.8154 10.3819 45.8154 11.2411C45.8154 12.1002 46.1376 12.3508 48.2855 12.7804L51.5791 13.4606C55.3738 14.1766 56.949 15.895 56.949 18.8305C56.949 22.1957 54.1925 24.3437 49.2163 24.3437Z" fill="#222222"/>
<path d="M64.6084 23.9857H59.2743V0H64.6084V8.77088H64.8232C65.7898 7.0883 67.7588 5.62053 70.6228 5.62053C75.2767 5.62053 77.2099 8.73508 77.2099 12.5656V23.9857H71.84V13.6396C71.84 11.1337 71.0166 10.2387 68.2958 10.2387C65.7182 10.2387 64.6084 11.0979 64.6084 13.8186V23.9857Z" fill="#222222"/>
<path d="M85.4032 3.93795H80.1407L80.0691 0H85.4032V3.93795ZM85.5106 23.9857H80.1407V5.97852H85.5106V23.9857Z" fill="#222222"/>
<path d="M93.549 30H88.1791V5.97852H93.1552V8.62768H93.3342C94.3008 6.69451 96.3772 5.62053 99.0621 5.62053C104.146 5.62053 106.795 9.30787 106.795 15C106.795 20.6563 104.038 24.3437 99.1695 24.3437C96.3056 24.3437 94.5514 23.1623 93.728 21.6229H93.549V30ZM93.549 16.432C93.549 18.8663 94.9452 19.7613 97.4869 19.7613C100.602 19.7613 101.425 18.2578 101.425 15C101.425 11.7064 100.602 10.2029 97.4869 10.2029C94.9452 10.2029 93.549 11.0979 93.549 13.5322V16.432Z" fill="#222222"/>
<path d="M114.524 23.9857H109.547V0H114.882V8.48449H115.096C115.92 6.98091 117.853 5.62053 120.574 5.62053C125.514 5.62053 128.127 9.30787 128.127 15C128.127 20.6563 125.514 24.3437 120.61 24.3437C117.817 24.3437 115.669 23.2697 114.703 21.3365H114.524V23.9857ZM114.882 16.432C114.882 18.8663 116.314 19.7613 118.855 19.7613C121.934 19.7613 122.793 18.2578 122.793 15C122.793 11.7064 121.97 10.2029 118.855 10.2029C116.314 10.2029 114.882 11.0979 114.882 13.5322V16.432Z" fill="#222222"/>
<path d="M135.675 24.3437C132.489 24.3437 130.018 22.6611 130.018 19.4033C130.018 16.611 132.023 14.8926 135.746 14.3198L141.904 13.389V12.8162C141.904 10.7041 140.758 10.3103 138.646 10.3103C136.462 10.3103 135.603 10.9189 135.603 12.7446V13.1384H130.484V12.7446C130.484 8.44869 133.813 5.62053 138.897 5.62053C144.195 5.62053 146.987 8.52029 146.987 13.3174V23.9857H142.011V21.5513H141.796C140.83 22.8759 139.004 24.3437 135.675 24.3437ZM135.138 18.9737C135.138 19.9403 135.889 20.2625 137.465 20.2625C139.648 20.2625 141.904 19.6897 141.904 16.8974L136.749 17.685C135.639 17.864 135.138 18.222 135.138 18.9737Z" fill="#222222"/>
<path d="M158.013 24.3437C152.357 24.3437 149.6 22.2315 149.6 17.864V17.7566H154.72V18.5084C154.72 19.8329 155.507 20.1193 158.121 20.1193C160.304 20.1193 160.662 19.7971 160.662 18.9021C160.662 17.9356 160.161 17.7208 157.763 17.2912L155.042 16.79C151.498 16.1456 149.565 14.642 149.565 11.3126C149.565 7.98329 152.285 5.62053 157.405 5.62053C161.808 5.62053 165.173 7.6969 165.173 11.7422V12.2434H160.054V11.7422C160.054 10.5609 159.553 9.91647 157.262 9.91647C155.114 9.91647 154.612 10.3819 154.612 11.2411C154.612 12.1002 154.935 12.3508 157.083 12.7804L160.376 13.4606C164.171 14.1766 165.746 15.895 165.746 18.8305C165.746 22.1957 162.989 24.3437 158.013 24.3437Z" fill="#222222"/>
<path d="M176.553 24.3437C170.36 24.3437 167.532 20.7279 167.532 15.0358C167.532 9.27208 170.969 5.62053 176.589 5.62053C181.995 5.62053 185.181 8.84248 185.181 13.5322C185.181 14.5346 185.038 15.5728 184.93 16.1814H172.58C172.687 18.6873 173.689 19.6897 176.625 19.6897C178.773 19.6897 179.704 19.2243 179.704 18.1146V17.8998H185.002V18.2578C185.002 22.0883 181.708 24.3437 176.553 24.3437ZM176.41 10.0239C173.833 10.0239 172.83 11.0263 172.615 12.9236H180.026C180.133 11.0621 178.916 10.0239 176.41 10.0239Z" fill="#222222"/>
</svg>
