<svg width="122" height="61" viewBox="0 0 122 61" fill="none" xmlns="http://www.w3.org/2000/svg">
<path d="M14.5613 21.9516H1.15333V0.89563H13.5373V3.07163H3.77733V19.7756H14.5613V21.9516ZM2.04933 12.3196V10.2076H12.3213V12.3196H2.04933Z" fill="black"/>
<path d="M17.9566 21.9516V8.86363L20.4846 8.41563V21.9516H17.9566ZM19.2366 4.95963C18.7032 4.95963 18.2766 4.8103 17.9566 4.51163C17.6579 4.19163 17.5086 3.7863 17.5086 3.29563C17.5086 2.80496 17.6579 2.4103 17.9566 2.11163C18.2766 1.79163 18.7032 1.63163 19.2366 1.63163C19.7272 1.63163 20.1326 1.79163 20.4526 2.11163C20.7726 2.4103 20.9326 2.80496 20.9326 3.29563C20.9326 3.7863 20.7726 4.19163 20.4526 4.51163C20.1326 4.8103 19.7272 4.95963 19.2366 4.95963Z" fill="black"/>
<path d="M27.9948 22.2716C27.3548 22.2716 26.7362 22.2076 26.1388 22.0796C25.5415 21.973 24.9975 21.8236 24.5068 21.6316C24.0375 21.4396 23.6322 21.237 23.2908 21.0236L23.9948 18.9756C24.5068 19.4663 25.1468 19.861 25.9148 20.1596C26.6828 20.437 27.4188 20.5756 28.1228 20.5756C28.9548 20.5756 29.5948 20.373 30.0428 19.9676C30.4908 19.541 30.7148 19.061 30.7148 18.5276C30.7148 17.9943 30.5442 17.5783 30.2028 17.2796C29.8828 16.9596 29.4562 16.693 28.9228 16.4796C28.4108 16.2663 27.8668 16.0636 27.2908 15.8716C26.7362 15.6796 26.1922 15.445 25.6588 15.1676C25.1468 14.869 24.7308 14.485 24.4108 14.0156C24.0908 13.5463 23.9308 12.949 23.9308 12.2236C23.9308 11.349 24.1442 10.6343 24.5708 10.0796C24.9975 9.50363 25.5628 9.0663 26.2668 8.76763C26.9922 8.46896 27.7922 8.31963 28.6668 8.31963C29.3282 8.31963 30.0002 8.40496 30.6828 8.57563C31.3655 8.7463 31.9522 8.98096 32.4428 9.27963L31.7388 11.1996C31.3335 10.7943 30.8108 10.485 30.1708 10.2716C29.5308 10.0583 28.9868 9.95163 28.5388 9.95163C27.7708 9.95163 27.1842 10.1223 26.7788 10.4636C26.3948 10.805 26.2028 11.221 26.2028 11.7116C26.2028 12.181 26.3628 12.565 26.6828 12.8636C27.0242 13.1623 27.4508 13.4183 27.9628 13.6316C28.4748 13.845 29.0188 14.0583 29.5948 14.2716C30.1922 14.4636 30.7468 14.709 31.2588 15.0076C31.7922 15.3063 32.2188 15.701 32.5388 16.1916C32.8802 16.661 33.0508 17.269 33.0508 18.0156C33.0508 18.5916 32.9335 19.1356 32.6988 19.6476C32.4855 20.1596 32.1548 20.6183 31.7068 21.0236C31.2802 21.4076 30.7468 21.717 30.1068 21.9516C29.4882 22.165 28.7842 22.2716 27.9948 22.2716Z" fill="black"/>
<path d="M45.1423 21.9516V14.3036C45.1423 13.0663 44.865 12.0956 44.3103 11.3916C43.7557 10.6876 42.9663 10.3356 41.9423 10.3356C41.409 10.3356 40.8437 10.4423 40.2463 10.6556C39.6703 10.869 39.1263 11.1996 38.6143 11.6476C38.1023 12.0743 37.665 12.6396 37.3023 13.3436L36.4383 12.5756C36.9503 11.637 37.5583 10.869 38.2623 10.2716C38.9877 9.65296 39.7557 9.1943 40.5663 8.89563C41.3983 8.59696 42.209 8.44763 42.9983 8.44763C43.9157 8.44763 44.7157 8.6503 45.3983 9.05563C46.1023 9.43963 46.657 10.005 47.0623 10.7516C47.4677 11.4983 47.6703 12.3943 47.6703 13.4396V21.9516H45.1423ZM35.4143 21.9516V8.86363L37.4943 8.41563L37.9423 11.4876V21.9516H35.4143Z" fill="black"/>
<path d="M56.6383 22.2716C55.3797 22.2716 54.2597 22.0156 53.2783 21.5036C52.3183 20.9703 51.561 20.213 51.0063 19.2316C50.473 18.2503 50.2063 17.0876 50.2063 15.7436C50.2063 14.2716 50.505 12.981 51.1023 11.8716C51.721 10.7623 52.553 9.8983 53.5983 9.27963C54.6437 8.66096 55.8277 8.35163 57.1503 8.35163C58.7503 8.35163 59.9557 8.82096 60.7663 9.75963C61.577 10.677 61.9823 11.9463 61.9823 13.5676C61.9823 13.7596 61.9823 13.9623 61.9823 14.1756C61.9823 14.389 61.961 14.6023 61.9183 14.8156H59.7743V13.5356C59.7743 12.405 59.5503 11.5623 59.1023 11.0076C58.6543 10.4316 57.9397 10.1436 56.9583 10.1436C56.0837 10.1436 55.3157 10.357 54.6543 10.7836C53.993 11.2103 53.481 11.8183 53.1183 12.6076C52.7557 13.397 52.5743 14.325 52.5743 15.3916C52.5743 16.9063 52.9903 18.1116 53.8223 19.0076C54.6757 19.8823 55.785 20.3196 57.1503 20.3196C57.8543 20.3196 58.5263 20.1916 59.1663 19.9356C59.8277 19.6583 60.4677 19.253 61.0863 18.7196L61.9503 20.0316C61.3743 20.5863 60.7877 21.0343 60.1903 21.3756C59.593 21.6956 58.9957 21.9196 58.3983 22.0476C57.801 22.197 57.2143 22.2716 56.6383 22.2716ZM51.5503 14.8156L51.8383 13.2476H61.5983V14.8156H51.5503Z" fill="black"/>
<path d="M64.4793 21.9516V8.86363L66.5593 8.41563L67.0073 11.6796V21.9516H64.4793ZM66.5593 13.5996L65.9513 12.7996C66.6553 11.4556 67.4553 10.3996 68.3513 9.63163C69.2687 8.86363 70.282 8.47963 71.3913 8.47963C71.8607 8.47963 72.298 8.54363 72.7033 8.67163C73.1087 8.7783 73.4607 8.95963 73.7593 9.21563L72.7353 11.3276C72.5007 11.1356 72.1913 10.9863 71.8073 10.8796C71.4447 10.7516 71.0607 10.6876 70.6553 10.6876C69.866 10.6876 69.13 10.933 68.4473 11.4236C67.7647 11.9143 67.1353 12.6396 66.5593 13.5996Z" fill="black"/>
<path d="M8.09733 51.1436C6.71067 51.1436 5.47333 50.8983 4.38533 50.4076C3.31867 49.8956 2.42267 49.213 1.69733 48.3596C0.993333 47.5063 0.502667 46.5356 0.225333 45.4476C-0.052 44.3596 -0.0733334 43.229 0.161333 42.0556C0.438667 40.797 0.929333 39.6983 1.63333 38.7596C2.35867 37.821 3.23333 37.085 4.25733 36.5516C5.30267 36.0183 6.40133 35.7516 7.55333 35.7516C8.27867 35.7516 8.96133 35.869 9.60133 36.1036C10.2627 36.3383 10.8493 36.7116 11.3613 37.2236L9.53733 38.8556C9.15333 38.301 8.67333 37.9276 8.09733 37.7356C7.54267 37.5223 7.03067 37.4156 6.56133 37.4156C5.772 37.4156 5.08933 37.5863 4.51333 37.9276C3.93733 38.269 3.45733 38.7276 3.07333 39.3036C2.68933 39.8583 2.42267 40.5196 2.27333 41.2876C2.03867 42.3116 2.028 43.293 2.24133 44.2316C2.476 45.1703 2.90267 46.0023 3.52133 46.7276C4.14 47.4316 4.908 47.997 5.82533 48.4236C6.74267 48.829 7.76667 49.0316 8.89733 49.0316C10.22 49.0316 11.3613 48.7436 12.3213 48.1676C13.3027 47.5703 14.092 46.6956 14.6893 45.5436C15.2867 44.3916 15.6813 42.9623 15.8733 41.2556L17.6333 41.3836C17.4627 43.4956 16.94 45.2876 16.0653 46.7596C15.1907 48.2103 14.06 49.309 12.6733 50.0556C11.308 50.781 9.78267 51.1436 8.09733 51.1436ZM2.11333 46.0876L1.31333 45.0316C2.40133 44.1356 3.57467 43.2183 4.83333 42.2796C6.092 41.341 7.28667 40.3916 8.41733 39.4316C9.56933 38.4503 10.5507 37.469 11.3613 36.4876C12.1933 35.485 12.7053 34.5036 12.8973 33.5436C12.9827 33.1596 12.9933 32.7543 12.9293 32.3276C12.8867 31.901 12.7693 31.485 12.5773 31.0796C12.3853 30.6743 12.108 30.3223 11.7453 30.0236L13.9213 28.8076C14.4547 29.213 14.8173 29.661 15.0093 30.1516C15.2013 30.6423 15.2867 31.133 15.2653 31.6236C15.2653 32.1143 15.2227 32.5623 15.1373 32.9676C14.8813 34.205 14.2947 35.3996 13.3773 36.5516C12.4813 37.7036 11.3933 38.8236 10.1133 39.9116C8.85467 40.9996 7.52133 42.0556 6.11333 43.0796C4.70533 44.1036 3.372 45.1063 2.11333 46.0876ZM11.6173 43.2396L10.4653 42.9196C10.7213 42.237 11.0307 41.6823 11.3933 41.2556C11.756 40.829 12.1827 40.509 12.6733 40.2956C13.164 40.0823 13.6867 39.9756 14.2413 39.9756C14.8173 39.9756 15.3613 40.0396 15.8733 40.1676C16.4067 40.2743 16.9293 40.3916 17.4413 40.5196C17.9533 40.6476 18.4867 40.7116 19.0413 40.7116C19.596 40.7116 20.0867 40.6263 20.5133 40.4556C20.9613 40.2636 21.324 39.9436 21.6013 39.4956L22.7533 39.7836C22.412 40.7223 21.9427 41.4476 21.3453 41.9596C20.748 42.4716 19.948 42.7276 18.9453 42.7276C18.3267 42.7276 17.7613 42.6636 17.2493 42.5356C16.7373 42.4076 16.2467 42.2903 15.7773 42.1836C15.308 42.0556 14.7853 41.9916 14.2093 41.9916C13.6333 41.9916 13.1213 42.0876 12.6733 42.2796C12.2467 42.4716 11.8947 42.7916 11.6173 43.2396Z" fill="black"/>
<path d="M39.3063 45.8316C39.3063 45.1063 39.125 44.4876 38.7623 43.9756C38.421 43.4636 37.941 43.0263 37.3223 42.6636C36.725 42.2796 36.0743 41.9276 35.3703 41.6076C34.6663 41.2663 33.9517 40.9143 33.2263 40.5516C32.5223 40.189 31.8717 39.7836 31.2743 39.3356C30.677 38.8663 30.197 38.3223 29.8343 37.7036C29.4717 37.0636 29.2903 36.2956 29.2903 35.3996C29.2903 34.1836 29.5783 33.149 30.1543 32.2956C30.7303 31.421 31.5197 30.749 32.5223 30.2796C33.525 29.8103 34.6557 29.5756 35.9143 29.5756C36.8103 29.5756 37.7277 29.6823 38.6663 29.8956C39.605 30.109 40.4477 30.4396 41.1943 30.8876L40.2023 33.3196C39.5623 32.7863 38.805 32.3703 37.9303 32.0716C37.077 31.773 36.245 31.6236 35.4343 31.6236C34.6023 31.6236 33.909 31.773 33.3543 32.0716C32.821 32.3703 32.4263 32.765 32.1703 33.2556C31.9357 33.725 31.8183 34.2263 31.8183 34.7596C31.8183 35.3996 31.9997 35.9543 32.3623 36.4236C32.725 36.8716 33.205 37.277 33.8023 37.6396C34.3997 37.981 35.0503 38.3223 35.7543 38.6636C36.4797 38.9836 37.1943 39.3356 37.8983 39.7196C38.6237 40.0823 39.285 40.509 39.8823 40.9996C40.4797 41.4903 40.9597 42.077 41.3223 42.7596C41.7063 43.4423 41.8983 44.2423 41.8983 45.1596C41.8983 46.461 41.589 47.5703 40.9703 48.4876C40.3517 49.405 39.509 50.109 38.4423 50.5996C37.3757 51.069 36.181 51.3036 34.8583 51.3036C33.5143 51.3036 32.2663 51.101 31.1143 50.6956C29.9837 50.2903 29.045 49.7783 28.2983 49.1596L29.6423 46.8876C30.4103 47.613 31.3063 48.1783 32.3303 48.5836C33.3543 48.989 34.3783 49.1916 35.4023 49.1916C36.6183 49.1916 37.5677 48.893 38.2503 48.2956C38.9543 47.677 39.3063 46.8556 39.3063 45.8316Z" fill="black"/>
<path d="M49.7836 51.1756C49.0156 51.1756 48.3116 51.0156 47.6716 50.6956C47.0529 50.3756 46.5623 49.917 46.1996 49.3196C45.8369 48.701 45.6556 47.9436 45.6556 47.0476V38.3116L46.5196 34.8236L48.1836 34.5036V46.5996C48.1836 47.4956 48.3862 48.1676 48.7916 48.6156C49.2183 49.0636 49.7836 49.2876 50.4876 49.2876C50.9142 49.2876 51.3516 49.213 51.7996 49.0636C52.2689 48.9143 52.7276 48.669 53.1756 48.3276L53.9116 49.4796C53.2929 50.0556 52.6209 50.4823 51.8956 50.7596C51.1916 51.037 50.4876 51.1756 49.7836 51.1756ZM53.1436 39.5916L43.0316 39.5596L43.1916 37.9916L53.2716 37.8316L53.1436 39.5916Z" fill="black"/>
<path d="M61.1071 51.2716C59.8484 51.2716 58.7284 51.0156 57.7471 50.5036C56.7871 49.9703 56.0298 49.213 55.4751 48.2316C54.9417 47.2503 54.6751 46.0876 54.6751 44.7436C54.6751 43.2716 54.9738 41.981 55.5711 40.8716C56.1898 39.7623 57.0218 38.8983 58.0671 38.2796C59.1124 37.661 60.2964 37.3516 61.6191 37.3516C63.2191 37.3516 64.4244 37.821 65.2351 38.7596C66.0458 39.677 66.4511 40.9463 66.4511 42.5676C66.4511 42.7596 66.4511 42.9623 66.4511 43.1756C66.4511 43.389 66.4297 43.6023 66.3871 43.8156H64.2431V42.5356C64.2431 41.405 64.0191 40.5623 63.5711 40.0076C63.1231 39.4316 62.4084 39.1436 61.4271 39.1436C60.5524 39.1436 59.7844 39.357 59.1231 39.7836C58.4618 40.2103 57.9498 40.8183 57.5871 41.6076C57.2244 42.397 57.0431 43.325 57.0431 44.3916C57.0431 45.9063 57.4591 47.1116 58.2911 48.0076C59.1444 48.8823 60.2537 49.3196 61.6191 49.3196C62.3231 49.3196 62.9951 49.1916 63.6351 48.9356C64.2964 48.6583 64.9364 48.253 65.5551 47.7196L66.4191 49.0316C65.8431 49.5863 65.2564 50.0343 64.6591 50.3756C64.0618 50.6956 63.4644 50.9196 62.8671 51.0476C62.2698 51.197 61.6831 51.2716 61.1071 51.2716ZM56.0191 43.8156L56.3071 42.2476H66.0671V43.8156H56.0191Z" fill="black"/>
<path d="M68.9481 50.9516V37.8636L71.0281 37.4156L71.4761 40.6796V50.9516H68.9481ZM71.0281 42.5996L70.4201 41.7996C71.1241 40.4556 71.9241 39.3996 72.8201 38.6316C73.7374 37.8636 74.7507 37.4796 75.8601 37.4796C76.3294 37.4796 76.7667 37.5436 77.1721 37.6716C77.5774 37.7783 77.9294 37.9596 78.2281 38.2156L77.2041 40.3276C76.9694 40.1356 76.6601 39.9863 76.2761 39.8796C75.9134 39.7516 75.5294 39.6876 75.1241 39.6876C74.3347 39.6876 73.5987 39.933 72.9161 40.4236C72.2334 40.9143 71.6041 41.6396 71.0281 42.5996Z" fill="black"/>
<path d="M80.0521 50.9516V28.4236L82.5161 28.0076V50.9516H80.0521Z" fill="black"/>
<path d="M86.9016 50.9516V37.8636L89.4296 37.4156V50.9516H86.9016ZM88.1816 33.9596C87.6483 33.9596 87.2216 33.8103 86.9016 33.5116C86.6029 33.1916 86.4536 32.7863 86.4536 32.2956C86.4536 31.805 86.6029 31.4103 86.9016 31.1116C87.2216 30.7916 87.6483 30.6316 88.1816 30.6316C88.6723 30.6316 89.0776 30.7916 89.3976 31.1116C89.7176 31.4103 89.8776 31.805 89.8776 32.2956C89.8776 32.7863 89.7176 33.1916 89.3976 33.5116C89.0776 33.8103 88.6723 33.9596 88.1816 33.9596Z" fill="black"/>
<path d="M103.18 50.9516V43.3036C103.18 42.0663 102.903 41.0956 102.348 40.3916C101.793 39.6876 101.004 39.3356 99.9798 39.3356C99.4465 39.3356 98.8812 39.4423 98.2838 39.6556C97.7078 39.869 97.1638 40.1996 96.6518 40.6476C96.1398 41.0743 95.7025 41.6396 95.3398 42.3436L94.4758 41.5756C94.9878 40.637 95.5958 39.869 96.2998 39.2716C97.0252 38.653 97.7932 38.1943 98.6038 37.8956C99.4358 37.597 100.247 37.4476 101.036 37.4476C101.953 37.4476 102.753 37.6503 103.436 38.0556C104.14 38.4396 104.695 39.005 105.1 39.7516C105.505 40.4983 105.708 41.3943 105.708 42.4396V50.9516H103.18ZM93.4518 50.9516V37.8636L95.5318 37.4156L95.9798 40.4876V50.9516H93.4518Z" fill="black"/>
<path d="M113.556 60.1996C112.489 60.1996 111.529 60.0396 110.676 59.7196C109.823 59.3996 109.151 58.941 108.66 58.3436C108.169 57.7676 107.924 57.085 107.924 56.2956C107.924 55.293 108.372 54.2903 109.268 53.2876C110.164 52.3063 111.519 51.4423 113.332 50.6956L114.004 51.4636C112.788 52.0823 111.892 52.765 111.316 53.5116C110.761 54.2583 110.484 55.0156 110.484 55.7836C110.484 56.637 110.825 57.309 111.508 57.7996C112.191 58.3116 113.087 58.5676 114.196 58.5676C115.113 58.5676 115.935 58.397 116.66 58.0556C117.407 57.7143 117.993 57.2556 118.42 56.6796C118.868 56.1036 119.092 55.4423 119.092 54.6956C119.092 54.0343 118.921 53.5436 118.58 53.2236C118.239 52.925 117.705 52.701 116.98 52.5516C116.276 52.4023 115.348 52.2743 114.196 52.1676C113.279 52.061 112.404 51.9223 111.572 51.7516C110.761 51.581 110.111 51.3036 109.62 50.9196C109.129 50.5356 108.884 50.0023 108.884 49.3196C108.884 48.765 109.012 48.285 109.268 47.8796C109.545 47.453 109.919 47.0583 110.388 46.6956C110.879 46.333 111.455 45.981 112.116 45.6396L112.948 46.4396C112.457 46.6956 112.009 46.9836 111.604 47.3036C111.22 47.6236 111.028 48.0183 111.028 48.4876C111.028 48.8716 111.188 49.1703 111.508 49.3836C111.828 49.597 112.319 49.7676 112.98 49.8956C113.641 50.0023 114.494 50.1196 115.54 50.2476C116.692 50.3543 117.716 50.5143 118.612 50.7276C119.508 50.941 120.212 51.2823 120.724 51.7516C121.257 52.2423 121.524 52.9676 121.524 53.9276C121.524 55.1223 121.161 56.189 120.436 57.1276C119.711 58.0876 118.74 58.8343 117.524 59.3676C116.329 59.9223 115.007 60.1996 113.556 60.1996ZM114.036 47.1436C112.991 47.1436 112.063 46.941 111.252 46.5356C110.463 46.1303 109.844 45.5756 109.396 44.8716C108.948 44.1463 108.724 43.3356 108.724 42.4396C108.724 41.4583 108.98 40.5836 109.492 39.8156C110.004 39.0476 110.697 38.4503 111.572 38.0236C112.447 37.597 113.428 37.3836 114.516 37.3836C116.073 37.3836 117.332 37.821 118.292 38.6956C119.273 39.549 119.764 40.6583 119.764 42.0236C119.764 43.005 119.519 43.8796 119.028 44.6476C118.537 45.4156 117.854 46.0236 116.98 46.4716C116.127 46.9196 115.145 47.1436 114.036 47.1436ZM114.388 45.4796C115.028 45.4796 115.572 45.3516 116.02 45.0956C116.468 44.8183 116.82 44.4556 117.076 44.0076C117.332 43.5383 117.46 43.005 117.46 42.4076C117.46 41.4263 117.151 40.6263 116.532 40.0076C115.913 39.3676 115.103 39.0476 114.1 39.0476C113.204 39.0476 112.468 39.3356 111.892 39.9116C111.337 40.4663 111.06 41.213 111.06 42.1516C111.06 42.7916 111.199 43.3676 111.476 43.8796C111.775 44.3703 112.169 44.765 112.66 45.0636C113.172 45.341 113.748 45.4796 114.388 45.4796ZM116.756 39.4636L116.436 38.2156L121.78 37.7996V39.4636H116.756Z" fill="black"/>
</svg>
