<svg width="141" height="24" viewBox="0 0 141 24" fill="none" xmlns="http://www.w3.org/2000/svg">
<path d="M10.72 23.5369C4.896 23.5369 0 19.1209 0 12.6889C0 5.00889 5.728 0.272888 11.776 0.272888C14.528 0.272888 16.608 0.944889 18.496 1.96889L18.176 6.25689L17.952 6.32089C16.672 3.82489 13.024 2.32089 10.4 2.32089C5.792 2.32089 3.264 5.20089 3.264 11.4089C3.264 16.9449 6.496 21.4249 11.936 21.4249C13.664 21.4249 15.968 20.8809 17.44 19.5689C17.44 16.4969 17.44 14.2249 16.608 12.7849H20.544C20.032 14.2889 20.096 17.0729 20.096 18.8009C18.976 19.7929 16.736 23.5369 10.72 23.5369Z" fill="black"/>
<path d="M29.9825 0.688889C29.9825 0.688889 29.3105 1.90489 29.3105 6.12889V17.6809C29.3105 21.8729 29.9825 23.0889 29.9825 23.0889H25.8225C25.8225 23.0889 26.4945 21.8729 26.4945 17.6809V6.12889C26.4945 1.90489 25.8225 0.688889 25.8225 0.688889H29.9825Z" fill="black"/>
<path d="M38.566 0.688889C38.694 1.87289 39.046 3.60089 39.782 5.42489L45.382 18.9609L50.918 4.43289C51.206 3.47289 51.814 1.48889 51.814 0.688889H54.694C53.542 2.60889 53.062 4.04889 52.294 5.96889L45.734 22.6089L43.974 23.0569L37.894 8.49689C37.894 8.49689 35.654 3.28089 33.99 0.688889H38.566Z" fill="black"/>
<path d="M67.6732 23.4729C61.4332 23.4729 57.0812 18.8329 57.0812 12.7209C57.0812 5.68089 62.1692 0.30489 68.8572 0.30489C74.7452 0.30489 79.1612 4.94489 79.1612 11.2169C79.1612 18.2249 74.1052 23.4729 67.6732 23.4729ZM68.7613 21.4249C73.1133 21.4249 75.9932 18.0009 75.9932 12.7849C75.9932 6.57689 72.5373 2.28889 67.5452 2.28889C63.1613 2.28889 60.2492 5.80889 60.2492 11.1529C60.2492 17.0409 63.6733 21.4249 68.7613 21.4249Z" fill="black"/>
<path d="M84.1225 0.688889H87.8345L101.915 19.0569C101.947 18.6409 101.947 18.1929 101.947 17.6809V6.12889C101.947 1.90489 101.275 0.688889 101.275 0.688889H104.539C104.539 0.688889 103.867 1.90489 103.867 6.12889V17.6809C103.867 19.8569 104.059 21.2329 104.219 22.0649L104.891 23.0889H101.339L87.2585 4.75289C87.2265 5.16889 87.2265 5.61689 87.2265 6.12889V17.6809C87.2265 21.8729 87.8985 23.0889 87.8985 23.0889H84.6345C84.6345 23.0889 85.3065 21.8729 85.3065 17.6809V6.12889C85.3065 3.98489 85.1465 2.60889 84.9545 1.77689L84.1225 0.688889Z" fill="black"/>
<path d="M110.004 0.688889H113.716L127.796 19.0569C127.828 18.6409 127.828 18.1929 127.828 17.6809V6.12889C127.828 1.90489 127.156 0.688889 127.156 0.688889H130.42C130.42 0.688889 129.748 1.90489 129.748 6.12889V17.6809C129.748 19.8569 129.94 21.2329 130.1 22.0649L130.772 23.0889H127.22L113.14 4.75289C113.108 5.16889 113.108 5.61689 113.108 6.12889V17.6809C113.108 21.8729 113.78 23.0889 113.78 23.0889H110.516C110.516 23.0889 111.188 21.8729 111.188 17.6809V6.12889C111.188 3.98489 111.028 2.60889 110.836 1.77689L110.004 0.688889Z" fill="black"/>
<path d="M140.045 0.688889C140.045 0.688889 139.373 1.90489 139.373 6.12889V17.6809C139.373 21.8729 140.045 23.0889 140.045 23.0889H135.885C135.885 23.0889 136.557 21.8729 136.557 17.6809V6.12889C136.557 1.90489 135.885 0.688889 135.885 0.688889H140.045Z" fill="black"/>
</svg>
