<svg width="169" height="28" viewBox="0 0 169 28" fill="none" xmlns="http://www.w3.org/2000/svg">
<path d="M3.64062 11.724H14.0469V2.2865H17.6875V26.4115H14.0469V15.1459H3.64062V26.4115H0V2.2865H3.64062V11.724Z" fill="black"/>
<path d="M38.3812 5.70837H28.7094V11.5052H38.1V14.9271H28.7094V22.9896H38.3812V26.4115H25.0688V2.2865H38.3812V5.70837Z" fill="black"/>
<path d="M52.9344 16.1302L60.4031 26.4115H55.95L49.0594 16.5365H48.4031V26.4115H44.7625V2.2865H49.0281C52.2156 2.2865 54.5177 2.88546 55.9344 4.08337C57.4969 5.41671 58.2781 7.17712 58.2781 9.36462C58.2781 11.073 57.7885 12.5417 56.8094 13.7709C55.8302 15 54.5385 15.7865 52.9344 16.1302ZM48.4031 13.3646H49.5594C53.0073 13.3646 54.7313 12.0469 54.7313 9.4115C54.7313 6.94275 53.0542 5.70837 49.7 5.70837H48.4031V13.3646Z" fill="black"/>
<path d="M64.8 26.4115L69.8781 0.473999L78.1594 19.224L86.7375 0.473999L91.3 26.4115H87.5656L85.2375 11.849L78.0969 27.5209L71.1594 11.8334L68.5656 26.4115H64.8Z" fill="black"/>
<path d="M96.8219 14.2396C96.8219 10.8438 98.0667 7.92712 100.556 5.48962C103.035 3.05212 106.015 1.83337 109.494 1.83337C112.931 1.83337 115.879 3.06254 118.338 5.52087C120.806 7.97921 122.041 10.9323 122.041 14.3802C122.041 17.849 120.801 20.7917 118.322 23.2084C115.832 25.6355 112.827 26.849 109.306 26.849C106.192 26.849 103.395 25.7709 100.916 23.6146C98.1865 21.2292 96.8219 18.1042 96.8219 14.2396ZM100.494 14.2865C100.494 16.9532 101.39 19.1459 103.181 20.8646C104.963 22.5834 107.02 23.4427 109.353 23.4427C111.884 23.4427 114.02 22.5677 115.759 20.8177C117.499 19.0469 118.369 16.8907 118.369 14.349C118.369 11.7761 117.509 9.61983 115.791 7.88025C114.082 6.13025 111.968 5.25525 109.447 5.25525C106.936 5.25525 104.817 6.13025 103.088 7.88025C101.358 9.60942 100.494 11.7448 100.494 14.2865Z" fill="black"/>
<path d="M141.859 5.88025L138.906 7.63025C138.354 6.67192 137.828 6.04692 137.328 5.75525C136.807 5.42192 136.135 5.25525 135.312 5.25525C134.302 5.25525 133.464 5.54171 132.797 6.11462C132.13 6.67712 131.797 7.38546 131.797 8.23962C131.797 9.41671 132.672 10.3646 134.422 11.0834L136.828 12.0677C138.786 12.8594 140.219 13.8282 141.125 14.974C142.031 16.1094 142.484 17.5052 142.484 19.1615C142.484 21.3802 141.745 23.2136 140.266 24.6615C138.776 26.1198 136.927 26.849 134.719 26.849C132.625 26.849 130.896 26.2292 129.531 24.9896C128.188 23.75 127.349 22.0052 127.016 19.7552L130.703 18.9427C130.87 20.3594 131.161 21.3386 131.578 21.8802C132.328 22.9219 133.422 23.4427 134.859 23.4427C135.995 23.4427 136.938 23.0625 137.688 22.3021C138.438 21.5417 138.812 20.5782 138.812 19.4115C138.812 18.9427 138.745 18.5157 138.609 18.1302C138.484 17.7344 138.281 17.375 138 17.0521C137.729 16.7188 137.375 16.4115 136.938 16.1302C136.5 15.8386 135.979 15.5625 135.375 15.3021L133.047 14.3334C129.745 12.9375 128.094 10.8959 128.094 8.20837C128.094 6.39587 128.786 4.88025 130.172 3.6615C131.557 2.43233 133.281 1.81775 135.344 1.81775C138.125 1.81775 140.297 3.17192 141.859 5.88025Z" fill="black"/>
<path d="M162.397 20.5521H152.069L149.381 26.4115H145.459L157.397 0.770874L168.913 26.4115H164.928L162.397 20.5521ZM160.913 17.1302L157.334 8.92712L153.584 17.1302H160.913Z" fill="black"/>
</svg>
