<svg width="127" height="54" viewBox="0 0 127 54" fill="none" xmlns="http://www.w3.org/2000/svg">
<path d="M0 1.06487H7.072L12.416 16.7769H12.48L17.536 1.06487H24.608V23.9129H19.904V7.72087H19.84L14.24 23.9129H10.368L4.768 7.88087H4.704V23.9129H0V1.06487Z" fill="black"/>
<path d="M34.7913 15.0809H40.7113L37.8312 6.69687H37.7673L34.7913 15.0809ZM35.2712 1.06487H40.4232L48.9673 23.9129H43.7513L42.0233 18.8249H33.4792L31.6873 23.9129H26.6313L35.2712 1.06487Z" fill="black"/>
<path d="M55.9615 11.4009H61.4655C62.6175 11.4009 63.4815 11.1449 64.0575 10.6329C64.6335 10.1209 64.9215 9.28887 64.9215 8.13687C64.9215 7.02754 64.6335 6.22754 64.0575 5.73687C63.4815 5.22487 62.6175 4.96887 61.4655 4.96887H55.9615V11.4009ZM50.9375 1.06487H63.2575C64.2815 1.06487 65.1988 1.23554 66.0095 1.57687C66.8415 1.89687 67.5455 2.34487 68.1215 2.92087C68.7188 3.49687 69.1668 4.16887 69.4655 4.93687C69.7855 5.68354 69.9455 6.49421 69.9455 7.36887C69.9455 8.71287 69.6575 9.87554 69.0815 10.8569C68.5268 11.8382 67.6095 12.5849 66.3295 13.0969V13.1609C66.9482 13.3315 67.4602 13.5982 67.8655 13.9609C68.2708 14.3022 68.6015 14.7182 68.8575 15.2089C69.1135 15.6782 69.2948 16.2009 69.4015 16.7769C69.5295 17.3529 69.6148 17.9289 69.6575 18.5049C69.6788 18.8675 69.7002 19.2942 69.7215 19.7849C69.7428 20.2755 69.7748 20.7769 69.8175 21.2889C69.8815 21.8009 69.9668 22.2915 70.0735 22.7609C70.2015 23.2089 70.3828 23.5929 70.6175 23.9129H65.5935C65.3162 23.1875 65.1455 22.3235 65.0815 21.3209C65.0175 20.3182 64.9215 19.3582 64.7935 18.4409C64.6228 17.2462 64.2602 16.3715 63.7055 15.8169C63.1508 15.2622 62.2442 14.9849 60.9855 14.9849H55.9615V23.9129H50.9375V1.06487Z" fill="black"/>
<path d="M89.2633 8.74487C89.1779 8.16887 88.9859 7.64621 88.6872 7.17687C88.3886 6.68621 88.0153 6.25954 87.5673 5.89687C87.1193 5.53421 86.6072 5.25687 86.0312 5.06487C85.4766 4.85154 84.8899 4.74487 84.2712 4.74487C83.1406 4.74487 82.1806 4.96887 81.3913 5.41687C80.6019 5.84354 79.9619 6.43021 79.4713 7.17687C78.9806 7.90221 78.6179 8.73421 78.3832 9.67287C78.1699 10.6115 78.0632 11.5822 78.0632 12.5849C78.0632 13.5449 78.1699 14.4835 78.3832 15.4009C78.6179 16.2969 78.9806 17.1075 79.4713 17.8329C79.9619 18.5582 80.6019 19.1449 81.3913 19.5929C82.1806 20.0195 83.1406 20.2329 84.2712 20.2329C85.8073 20.2329 87.0019 19.7635 87.8553 18.8249C88.7299 17.8862 89.2632 16.6489 89.4552 15.1129H94.3193C94.1913 16.5422 93.8606 17.8329 93.3273 18.9849C92.7939 20.1369 92.0899 21.1182 91.2152 21.9289C90.3406 22.7395 89.3166 23.3582 88.1432 23.7849C86.9699 24.2115 85.6792 24.4249 84.2712 24.4249C82.5219 24.4249 80.9432 24.1262 79.5352 23.5289C78.1486 22.9102 76.9753 22.0675 76.0153 21.0009C75.0553 19.9342 74.3193 18.6862 73.8073 17.2569C73.2952 15.8062 73.0393 14.2489 73.0393 12.5849C73.0393 10.8782 73.2952 9.29954 73.8073 7.84887C74.3193 6.37687 75.0553 5.09687 76.0153 4.00887C76.9753 2.92087 78.1486 2.06754 79.5352 1.44887C80.9432 0.830207 82.5219 0.520874 84.2712 0.520874C85.5299 0.520874 86.7139 0.702207 87.8232 1.06487C88.9539 1.42754 89.9566 1.96087 90.8313 2.66487C91.7272 3.34754 92.4633 4.20087 93.0393 5.22487C93.6152 6.24887 93.9779 7.42221 94.1273 8.74487H89.2633Z" fill="black"/>
<path d="M101.782 12.5849C101.782 13.5449 101.889 14.4835 102.102 15.4009C102.337 16.2969 102.699 17.1075 103.19 17.8329C103.681 18.5582 104.321 19.1449 105.11 19.5929C105.899 20.0195 106.859 20.2329 107.99 20.2329C109.121 20.2329 110.081 20.0195 110.87 19.5929C111.659 19.1449 112.299 18.5582 112.79 17.8329C113.281 17.1075 113.633 16.2969 113.846 15.4009C114.081 14.4835 114.198 13.5449 114.198 12.5849C114.198 11.5822 114.081 10.6115 113.846 9.67287C113.633 8.73421 113.281 7.90221 112.79 7.17687C112.299 6.43021 111.659 5.84354 110.87 5.41687C110.081 4.96887 109.121 4.74487 107.99 4.74487C106.859 4.74487 105.899 4.96887 105.11 5.41687C104.321 5.84354 103.681 6.43021 103.19 7.17687C102.699 7.90221 102.337 8.73421 102.102 9.67287C101.889 10.6115 101.782 11.5822 101.782 12.5849ZM96.758 12.5849C96.758 10.8782 97.014 9.29954 97.526 7.84887C98.038 6.37687 98.774 5.09687 99.734 4.00887C100.694 2.92087 101.867 2.06754 103.254 1.44887C104.662 0.830207 106.241 0.520874 107.99 0.520874C109.761 0.520874 111.339 0.830207 112.726 1.44887C114.113 2.06754 115.286 2.92087 116.246 4.00887C117.206 5.09687 117.942 6.37687 118.454 7.84887C118.966 9.29954 119.222 10.8782 119.222 12.5849C119.222 14.2489 118.966 15.8062 118.454 17.2569C117.942 18.6862 117.206 19.9342 116.246 21.0009C115.286 22.0675 114.113 22.9102 112.726 23.5289C111.339 24.1262 109.761 24.4249 107.99 24.4249C106.241 24.4249 104.662 24.1262 103.254 23.5289C101.867 22.9102 100.694 22.0675 99.734 21.0009C98.774 19.9342 98.038 18.6862 97.526 17.2569C97.014 15.8062 96.758 14.2489 96.758 12.5849Z" fill="black"/>
<path d="M5.024 41.1769H8.928C9.504 41.1769 10.0587 41.1342 10.592 41.0489C11.1253 40.9635 11.5947 40.8035 12 40.5689C12.4053 40.3129 12.7253 39.9609 12.96 39.5129C13.216 39.0649 13.344 38.4782 13.344 37.7529C13.344 37.0275 13.216 36.4409 12.96 35.9929C12.7253 35.5449 12.4053 35.2035 12 34.9689C11.5947 34.7129 11.1253 34.5422 10.592 34.4569C10.0587 34.3715 9.504 34.3289 8.928 34.3289H5.024V41.1769ZM0 30.4249H10.304C11.7333 30.4249 12.9493 30.6382 13.952 31.0649C14.9547 31.4702 15.7653 32.0142 16.384 32.6969C17.024 33.3795 17.4827 34.1582 17.76 35.0329C18.0587 35.9075 18.208 36.8142 18.208 37.7529C18.208 38.6702 18.0587 39.5769 17.76 40.4729C17.4827 41.3475 17.024 42.1262 16.384 42.8089C15.7653 43.4915 14.9547 44.0462 13.952 44.4729C12.9493 44.8782 11.7333 45.0809 10.304 45.0809H5.024V53.2729H0V30.4249Z" fill="black"/>
<path d="M21.3438 30.4249H26.3678V53.2729H21.3438V30.4249Z" fill="black"/>
<path d="M30.7812 30.4249H47.8693V34.6489H35.8053V39.5449H46.8773V43.4489H35.8053V49.0489H48.1253V53.2729H30.7812V30.4249Z" fill="black"/>
<path d="M56.5553 40.7609H62.0592C63.2113 40.7609 64.0753 40.5049 64.6513 39.9929C65.2272 39.4809 65.5153 38.6489 65.5153 37.4969C65.5153 36.3875 65.2272 35.5875 64.6513 35.0969C64.0753 34.5849 63.2113 34.3289 62.0592 34.3289H56.5553V40.7609ZM51.5312 30.4249H63.8512C64.8753 30.4249 65.7926 30.5955 66.6032 30.9369C67.4352 31.2569 68.1393 31.7049 68.7152 32.2809C69.3126 32.8569 69.7606 33.5289 70.0592 34.2969C70.3792 35.0435 70.5393 35.8542 70.5393 36.7289C70.5393 38.0729 70.2513 39.2355 69.6752 40.2169C69.1206 41.1982 68.2032 41.9449 66.9232 42.4569V42.5209C67.5419 42.6915 68.0539 42.9582 68.4593 43.3209C68.8646 43.6622 69.1953 44.0782 69.4512 44.5689C69.7072 45.0382 69.8886 45.5609 69.9953 46.1369C70.1233 46.7129 70.2086 47.2889 70.2513 47.8649C70.2726 48.2275 70.2939 48.6542 70.3152 49.1449C70.3366 49.6355 70.3686 50.1369 70.4113 50.6489C70.4753 51.1609 70.5606 51.6515 70.6673 52.1209C70.7952 52.5689 70.9766 52.9529 71.2113 53.2729H66.1872C65.9099 52.5475 65.7392 51.6835 65.6752 50.6809C65.6112 49.6782 65.5153 48.7182 65.3873 47.8009C65.2166 46.6062 64.8539 45.7315 64.2992 45.1769C63.7446 44.6222 62.8379 44.3449 61.5793 44.3449H56.5553V53.2729H51.5312V30.4249Z" fill="black"/>
<path d="M79.649 40.7609H85.153C86.305 40.7609 87.169 40.5049 87.745 39.9929C88.321 39.4809 88.609 38.6489 88.609 37.4969C88.609 36.3875 88.321 35.5875 87.745 35.0969C87.169 34.5849 86.305 34.3289 85.153 34.3289H79.649V40.7609ZM74.625 30.4249H86.945C87.969 30.4249 88.8863 30.5955 89.697 30.9369C90.529 31.2569 91.233 31.7049 91.809 32.2809C92.4063 32.8569 92.8543 33.5289 93.153 34.2969C93.473 35.0435 93.633 35.8542 93.633 36.7289C93.633 38.0729 93.345 39.2355 92.769 40.2169C92.2143 41.1982 91.297 41.9449 90.017 42.4569V42.5209C90.6357 42.6915 91.1477 42.9582 91.553 43.3209C91.9583 43.6622 92.289 44.0782 92.545 44.5689C92.801 45.0382 92.9823 45.5609 93.089 46.1369C93.217 46.7129 93.3023 47.2889 93.345 47.8649C93.3663 48.2275 93.3877 48.6542 93.409 49.1449C93.4303 49.6355 93.4623 50.1369 93.505 50.6489C93.569 51.1609 93.6543 51.6515 93.761 52.1209C93.889 52.5689 94.0703 52.9529 94.305 53.2729H89.281C89.0037 52.5475 88.833 51.6835 88.769 50.6809C88.705 49.6782 88.609 48.7182 88.481 47.8009C88.3103 46.6062 87.9477 45.7315 87.393 45.1769C86.8383 44.6222 85.9317 44.3449 84.673 44.3449H79.649V53.2729H74.625V30.4249Z" fill="black"/>
<path d="M97.7188 30.4249H114.807V34.6489H102.743V39.5449H113.815V43.4489H102.743V49.0489H115.063V53.2729H97.7188V30.4249Z" fill="black"/>
<path d="M126.222 2.52087C126.222 3.62544 125.327 4.52087 124.222 4.52087C123.117 4.52087 122.222 3.62544 122.222 2.52087C122.222 1.4163 123.117 0.520874 124.222 0.520874C125.327 0.520874 126.222 1.4163 126.222 2.52087Z" fill="black"/>
</svg>
