<svg width="196" height="17" viewBox="0 0 196 17" fill="none" xmlns="http://www.w3.org/2000/svg">
<path d="M19.2 3.46367H12.8V16.2637H9.6V3.46367H3.2V0.263672H19.2V3.46367ZM0 16.2637V6.66367C0 4.90367 1.44 3.46367 3.2 3.46367V16.2637H0ZM19.2 16.2637V3.46367C20.96 3.46367 22.4 4.90367 22.4 6.66367V16.2637H19.2Z" fill="black"/>
<path d="M48.0125 3.46367H32.0125V0.263672H48.0125V3.46367ZM28.8125 9.86367V6.66367C28.8125 4.90367 30.2525 3.46367 32.0125 3.46367V13.0637C30.2525 13.0637 28.8125 11.6237 28.8125 9.86367ZM32.0125 16.2637V13.0637H48.0125V16.2637H32.0125ZM48.0125 13.0637V3.46367C49.7725 3.46367 51.2125 4.90367 51.2125 6.66367V9.86367C51.2125 11.6237 49.7725 13.0637 48.0125 13.0637Z" fill="black"/>
<path d="M73.625 0.263672C75.385 0.263672 76.825 1.70367 76.825 3.46367H60.825V6.66367H76.825V9.86367H60.825V16.2637H57.625V0.263672H73.625ZM76.825 16.2637V9.86367C78.585 9.86367 80.025 11.3037 80.025 13.0637V16.2637H76.825ZM76.825 6.66367V3.46367H80.025V6.66367H76.825Z" fill="black"/>
<path d="M89.6375 3.46367V6.66367H105.638V3.46367C107.398 3.46367 108.838 4.90367 108.838 6.66367V16.2637H105.638V9.86367H89.6375V16.2637H86.4375V6.66367C86.4375 4.90367 87.8775 3.46367 89.6375 3.46367ZM89.6375 3.46367V0.263672H105.638V3.46367H89.6375Z" fill="black"/>
<path d="M134.45 3.46367H118.45V0.263672H134.45V3.46367ZM115.25 16.2637V6.66367C115.25 4.90367 116.69 3.46367 118.45 3.46367V16.2637H115.25ZM134.45 16.2637V3.46367C136.21 3.46367 137.65 4.90367 137.65 6.66367V16.2637H134.45Z" fill="black"/>
<path d="M166.462 3.46367H147.262V0.263672H166.462V3.46367ZM144.062 9.86367V6.66367C144.062 4.90367 145.503 3.46367 147.262 3.46367V13.0637C145.503 13.0637 144.062 11.6237 144.062 9.86367ZM147.262 16.2637V13.0637H166.462V16.2637H147.262Z" fill="black"/>
<path d="M195.275 3.46367H176.075V0.263672H195.275V3.46367ZM172.875 9.86367V6.66367C172.875 4.90367 174.315 3.46367 176.075 3.46367V6.66367H195.275V9.86367H176.075V13.0637C174.315 13.0637 172.875 11.6237 172.875 9.86367ZM176.075 16.2637V13.0637H195.275V16.2637H176.075Z" fill="black"/>
</svg>
